<svg width="100" height="100" viewBox="0 0 100 100" fill="none" xmlns="http://www.w3.org/2000/svg">
<g clip-path="url(#clip0_132_54)">
<rect width="100" height="100" rx="10" fill="#39E168"/>
<path d="M64.7699 66.6339C64.7062 70.0466 64.0614 73.1552 62.8356 75.9594C61.6641 78.7114 59.9929 81.0807 57.8222 83.0672C55.6524 85.0004 53.0373 86.4985 49.977 87.5617C46.97 88.6258 43.6268 89.1235 39.9474 89.0549C36.2147 88.9852 32.8657 88.3627 29.9005 87.1872C26.9352 86.0117 24.4312 84.418 22.3883 82.4062C20.3465 80.3411 18.7915 77.9117 17.7234 75.118C16.6564 72.2709 16.1546 69.141 16.2183 65.7283L16.8763 30.4544L30.4739 30.708L29.8368 64.8621C29.808 66.4085 29.9673 67.8784 30.3147 69.2718C30.7154 70.6662 31.3053 71.9307 32.0842 73.0654C32.9175 74.1478 33.9947 75.0214 35.3159 75.6862C36.6904 76.3519 38.3375 76.7027 40.2571 76.7385C42.1768 76.7743 43.8092 76.4847 45.1542 75.8697C46.5526 75.2557 47.6883 74.4234 48.5614 73.3728C49.4354 72.2689 50.072 71.0272 50.4712 69.6478C50.8703 68.2683 51.0843 66.8054 51.1131 65.259L51.7502 31.1049L65.4278 31.36L64.7699 66.6339Z" fill="#FAFAFA"/>
<path d="M33.7951 33.5124C33.8904 30.1004 34.564 26.998 35.8158 24.2052C37.0128 21.4642 38.7059 19.1106 40.895 17.1443C43.0826 15.2313 45.7114 13.7575 48.7815 12.7228C51.7983 11.6867 55.146 11.22 58.8245 11.3227C62.5564 11.427 65.8995 12.0806 68.8537 13.2836C71.8079 14.4865 74.2971 16.1033 76.3211 18.134C78.3437 20.2179 79.8761 22.6617 80.9182 25.4652C81.9588 28.3221 82.4315 31.4565 82.3362 34.8685L81.351 70.1347L67.7563 69.7549L68.7102 35.6083C68.7534 34.0622 68.6078 32.5909 68.2733 31.1943C67.8855 29.7963 67.3074 28.5263 66.539 27.3844C65.7158 26.2943 64.6467 25.4108 63.3318 24.7338C61.9635 24.0553 60.3198 23.6893 58.4005 23.6357C56.4813 23.5821 54.8463 23.8565 53.4956 24.459C52.0916 25.0601 50.9482 25.8818 50.0654 26.9242C49.1812 28.0199 48.5331 29.2557 48.1212 30.6314C47.7092 32.0071 47.4817 33.4679 47.4385 35.014L46.4846 69.1607L32.8099 68.7787L33.7951 33.5124Z" fill="#FAFAFA"/>
</g>
<defs>
<clipPath id="clip0_132_54">
<rect width="100" height="100" rx="10" fill="white"/>
</clipPath>
</defs>
</svg>
