<?xml version="1.0" encoding="UTF-8"?>
<svg id="Calque_1" data-name="Calque 1" xmlns="http://www.w3.org/2000/svg" viewBox="0 0 100 100">
  <defs>
    <style>
      .cls-1 {
        fill: #fff;
      }

      .cls-2 {
        fill: #39e168;
      }
    </style>
  </defs>
  <g id="_4" data-name="4">
    <rect class="cls-2" width="100" height="100" rx="10" ry="10"/>
    <g>
      <path class="cls-1" d="m39.04,30.51c4.68-15.56,19.04-17.7,30.13-14.36,12.36,3.72,22.67,13.28,17.99,28.84l-7.85,26.09c-.26.86-1.16,1.34-2.02,1.08l-10.19-3.06c-.86-.26-1.34-1.16-1.08-2.02l7.69-25.56c2.97-9.88-4.08-11.98-8.2-13.22-2.97-.89-10.38-3.14-13.35,6.74l-7.62,25.57c-.26.86-1.16,1.35-2.02,1.09l-10.25-3.08c-.86-.26-1.34-1.16-1.08-2.02l7.85-26.09Z"/>
      <path class="cls-1" d="m60.96,69.49c-4.68,15.56-19.04,17.7-30.13,14.36-12.36-3.72-22.67-13.28-17.99-28.84l7.85-26.09c.26-.86,1.16-1.34,2.02-1.08l10.19,3.06c.86.26,1.34,1.16,1.08,2.02l-7.69,25.56c-2.97,9.88,4.08,11.98,8.2,13.22,2.97.89,10.38,3.14,13.35-6.74l7.62-25.57c.26-.86,1.16-1.35,2.02-1.09l10.25,3.08c.86.26,1.34,1.16,1.08,2.02l-7.85,26.09Z"/>
    </g>
  </g>
</svg>