<svg width="20" height="19" viewBox="0 0 20 19" fill="none" xmlns="http://www.w3.org/2000/svg">
<path d="M14.6969 2.5C13.4749 2.44 12.0179 3.01 10.8069 4.66L10.0019 5.75L9.19594 4.66C7.98394 3.01 6.52594 2.44 5.30394 2.5C4.06094 2.57 2.95494 3.28 2.39394 4.41C1.84194 5.53 1.76094 7.19 2.87294 9.23C3.94694 11.2 6.12994 13.5 10.0019 15.84C13.8719 13.5 16.0539 11.2 17.1279 9.23C18.2389 7.19 18.1579 5.53 17.6049 4.41C17.0439 3.28 15.9389 2.57 14.6969 2.5ZM18.8839 10.19C17.5329 12.67 14.8829 15.31 10.5049 17.86L10.0019 18.16L9.49794 17.86C5.11894 15.31 2.46894 12.67 1.11594 10.19C-0.244057 7.69 -0.294057 5.33 0.601943 3.52C1.48894 1.73 3.24894 0.609997 5.20294 0.509997C6.85394 0.419997 8.57094 1.07 10.0009 2.52C11.4299 1.07 13.1469 0.419997 14.7969 0.509997C16.7509 0.609997 18.5109 1.73 19.3979 3.52C20.2939 5.33 20.2439 7.69 18.8839 10.19Z" fill="black"/>
</svg>
