<svg width="21" height="21" viewBox="0 0 21 21" fill="none" xmlns="http://www.w3.org/2000/svg">
    <path d="M8.75 2.75C5.16 2.75 2.25 5.66 2.25 9.25C2.25 12.84 5.16 15.75 8.75 15.75C10.545 15.75 12.169 15.024 13.346 13.846C14.524 12.669 15.25 11.045 15.25 9.25C15.25 5.66 12.34 2.75 8.75 2.75ZM0.25 9.25C0.25 4.556 4.056 0.75 8.75 0.75C13.444 0.75 17.25 4.556 17.25 9.25C17.25 11.236 16.568 13.065 15.426 14.512L20.207 19.293L18.793 20.707L14.012 15.926C12.565 17.068 10.736 17.75 8.75 17.75C4.056 17.75 0.25 13.944 0.25 9.25Z" fill="#2B2626"/>
</svg>
