<svg xmlns="http://www.w3.org/2000/svg" fill="none" viewBox="0 0 24 24"><path fill="#ffef5e" d="M12 23.5C18.3513 23.5 23.5 18.3513 23.5 12C23.5 5.64873 18.3513 0.5 12 0.5C5.64873 0.5 0.5 5.64873 0.5 12C0.5 18.3513 5.64873 23.5 12 23.5Z"></path><path fill="#fff9bf" d="M12 4.5C14.4844 4.50019 16.9109 5.25054 18.9618 6.65282C21.0127 8.05509 22.5923 10.0439 23.494 12.359C23.494 12.239 23.5 12.12 23.5 12C23.5 8.95001 22.2884 6.02494 20.1317 3.86827C17.9751 1.7116 15.05 0.5 12 0.5C8.95001 0.5 6.02494 1.7116 3.86827 3.86827C1.7116 6.02494 0.5 8.95001 0.5 12C0.5 12.12 0.5 12.239 0.506 12.359C1.40766 10.0439 2.98733 8.05509 5.0382 6.65282C7.08906 5.25054 9.51556 4.50019 12 4.5V4.5Z"></path><path fill="#66e1ff" d="M23.5 6C23.5 6.66304 23.2366 7.29893 22.7678 7.76777C22.2989 8.23661 21.663 8.5 21 8.5C20.337 8.5 19.7011 8.23661 19.2322 7.76777C18.7634 7.29893 18.5 6.66304 18.5 6C18.5 4.619 21 0.5 21 0.5C21 0.5 23.5 4.619 23.5 6Z"></path><path fill="#c2f3ff" d="M21 8.5C20.337 8.5 19.7011 8.23661 19.2322 7.76777C18.7634 7.29893 18.5 6.66304 18.5 6C18.5 4.619 21 0.5 21 0.5V8.5Z"></path><path stroke="#191919" stroke-linecap="round" stroke-linejoin="round" d="M17.5 1.90002C15.2875 0.695161 12.7407 0.250141 10.2507 0.633349C7.76078 1.01656 5.46556 2.20679 3.71777 4.02114C1.96998 5.83549 0.866326 8.17357 0.576406 10.6761C0.286485 13.1786 0.826341 15.7071 2.11301 17.873C3.39969 20.0389 5.36198 21.7224 7.69835 22.6647C10.0347 23.607 12.6159 23.7561 15.0452 23.089C17.4745 22.4219 19.6176 20.9755 21.1451 18.9722C22.6725 16.9688 23.4999 14.5193 23.5 12C23.4962 11.4982 23.4598 10.9971 23.391 10.5"></path><path fill="#ff808c" stroke="#191919" stroke-linecap="round" stroke-linejoin="round" d="M15.873 15.5C16.0257 15.4998 16.1763 15.5345 16.3135 15.6015C16.4507 15.6685 16.5707 15.7661 16.6643 15.8866C16.7579 16.0072 16.8227 16.1476 16.8537 16.2971C16.8847 16.4466 16.881 16.6012 16.843 16.749C16.5671 17.8239 15.9415 18.7764 15.0647 19.4566C14.1879 20.1367 13.1097 20.5059 12 20.5059C10.8903 20.5059 9.81214 20.1367 8.93533 19.4566C8.05852 18.7764 7.4329 17.8239 7.157 16.749C7.11899 16.6012 7.11533 16.4466 7.14631 16.2971C7.17728 16.1476 7.24207 16.0072 7.33571 15.8866C7.42934 15.7661 7.54934 15.6685 7.6865 15.6015C7.82366 15.5345 7.97434 15.4998 8.127 15.5H15.873Z"></path><path stroke="#191919" stroke-linecap="round" stroke-linejoin="round" d="M18.8 10.108C18.5879 9.76889 18.2931 9.48929 17.9432 9.29546C17.5934 9.10163 17.2 8.99994 16.8 8.99994C16.4 8.99994 16.0066 9.10163 15.6568 9.29546C15.3069 9.48929 15.0121 9.76889 14.8 10.108"></path><path stroke="#191919" stroke-linecap="round" stroke-linejoin="round" d="M9.5 10.108C9.2879 9.76889 8.99307 9.48929 8.64322 9.29546C8.29336 9.10163 7.89996 8.99994 7.5 8.99994C7.10004 8.99994 6.70664 9.10163 6.35678 9.29546C6.00693 9.48929 5.7121 9.76889 5.5 10.108"></path><path stroke="#191919" stroke-linecap="round" stroke-linejoin="round" d="M23.5 6C23.5 6.66304 23.2366 7.29893 22.7678 7.76777C22.2989 8.23661 21.663 8.5 21 8.5C20.337 8.5 19.7011 8.23661 19.2322 7.76777C18.7634 7.29893 18.5 6.66304 18.5 6C18.5 4.619 21 0.5 21 0.5C21 0.5 23.5 4.619 23.5 6Z"></path></svg>