<svg xmlns="http://www.w3.org/2000/svg" fill="none" viewBox="0 0 24 24"><path fill="#ffef5e" d="M12 23.5C18.3513 23.5 23.5 18.3513 23.5 12C23.5 5.64873 18.3513 0.5 12 0.5C5.64873 0.5 0.5 5.64873 0.5 12C0.5 18.3513 5.64873 23.5 12 23.5Z"></path><path fill="#fff9bf" d="M6.7 6.70002C8.45604 4.94328 10.7016 3.75767 13.1426 3.2984C15.5837 2.83912 18.1066 3.12758 20.381 4.12602C20.299 4.03902 20.217 3.95302 20.132 3.86802C17.9753 1.71128 15.0501 0.499634 12 0.499634C8.94991 0.499634 6.02474 1.71128 3.868 3.86802C1.71126 6.02476 0.499619 8.94993 0.499619 12C0.499618 15.0501 1.71126 17.9753 3.868 20.132C3.953 20.217 4.039 20.299 4.126 20.381C3.12757 18.1066 2.83911 15.5837 3.29838 13.1427C3.75766 10.7016 4.94326 8.45605 6.7 6.70002V6.70002Z"></path><path stroke="#191919" stroke-linecap="round" stroke-linejoin="round" d="M19.637 3.42201C17.4489 1.46784 14.596 0.425141 11.6635 0.507867C8.73095 0.590593 5.9413 1.79247 3.86688 3.86689C1.79246 5.9413 0.590586 8.73096 0.50786 11.6635C0.425134 14.596 1.46783 17.4489 3.422 19.637"></path><path stroke="#191919" stroke-linecap="round" stroke-linejoin="round" d="M23.167 9.29999C23.6338 11.2142 23.5999 13.2164 23.0685 15.1137C22.537 17.011 21.526 18.7395 20.1328 20.1328C18.7395 21.526 17.011 22.537 15.1137 23.0684C13.2164 23.5999 11.2142 23.6338 9.3 23.167"></path><path fill="#66e1ff" stroke="#191919" stroke-linecap="round" stroke-linejoin="round" d="M8.177 20.584C8.24516 20.976 8.15481 21.379 7.92583 21.7044C7.69685 22.0297 7.34799 22.2508 6.956 22.319C6.56401 22.3871 6.161 22.2968 5.83563 22.0678C5.51025 21.8388 5.28916 21.49 5.221 21.098C5.079 20.282 6.185 17.886 6.185 17.886C6.185 17.886 8.035 19.768 8.177 20.584Z"></path><path fill="#66e1ff" stroke="#191919" stroke-linecap="round" stroke-linejoin="round" d="M20.584 8.17703C20.976 8.24545 21.3791 8.15536 21.7047 7.92656C22.0302 7.69777 22.2516 7.34902 22.32 6.95703C22.3884 6.56504 22.2983 6.16192 22.0695 5.83636C21.8407 5.51079 21.492 5.28945 21.1 5.22103C20.284 5.07903 17.888 6.18503 17.888 6.18503C17.888 6.18503 19.768 8.03503 20.584 8.17703Z"></path><path fill="#ff808c" stroke="#191919" stroke-linecap="round" stroke-linejoin="round" d="M17.914 10.7C17.9352 10.6035 17.9845 10.5155 18.0557 10.447C18.1269 10.3785 18.2168 10.3326 18.3141 10.3152C18.4114 10.2977 18.5116 10.3095 18.6022 10.349C18.6927 10.3885 18.7696 10.4539 18.823 10.537C19.5623 11.6892 19.8853 13.0596 19.7384 14.4207C19.5916 15.7817 18.9837 17.0517 18.0157 18.0197C17.0477 18.9877 15.7777 19.5956 14.4167 19.7424C13.0556 19.8893 11.6852 19.5663 10.533 18.827C10.4499 18.7736 10.3844 18.6968 10.345 18.6062C10.3055 18.5156 10.2937 18.4154 10.3111 18.3181C10.3286 18.2209 10.3744 18.131 10.4429 18.0598C10.5114 17.9885 10.5995 17.9392 10.696 17.918C12.4234 17.4585 13.9817 16.5107 15.184 15.188C16.5066 13.9857 17.4545 12.4274 17.914 10.7V10.7Z"></path><path stroke="#191919" stroke-linecap="round" stroke-linejoin="round" d="M6.345 14.124L8.467 12.002H4.931"></path><path stroke="#191919" stroke-linecap="round" stroke-linejoin="round" d="M14.124 6.34603L12.002 8.46703V4.93103"></path></svg>