<svg xmlns="http://www.w3.org/2000/svg" fill="none" viewBox="0 0 24 25"><path fill="#ffef5e" d="M12 24.5C18.3513 24.5 23.5 19.3513 23.5 13C23.5 6.64873 18.3513 1.5 12 1.5C5.64873 1.5 0.5 6.64873 0.5 13C0.5 19.3513 5.64873 24.5 12 24.5Z"></path><path fill="#fff9bf" d="M12 5.5C14.4844 5.50019 16.9109 6.25054 18.9618 7.65282C21.0127 9.05509 22.5923 11.0439 23.494 13.359C23.494 13.239 23.5 13.12 23.5 13C23.5 9.95001 22.2884 7.02494 20.1317 4.86827C17.9751 2.7116 15.05 1.5 12 1.5C8.95001 1.5 6.02494 2.7116 3.86827 4.86827C1.7116 7.02494 0.5 9.95001 0.5 13C0.5 13.12 0.5 13.239 0.506 13.359C1.40766 11.0439 2.98733 9.05509 5.0382 7.65282C7.08906 6.25054 9.51556 5.50019 12 5.5V5.5Z"></path><path fill="#66e1ff" d="M7.5 13.5H4.5V20.506H7.5V13.5Z"></path><path fill="#66e1ff" d="M19.5 13.5H16.5V20.506H19.5V13.5Z"></path><path stroke="#191919" stroke-linecap="round" stroke-linejoin="round" d="M21.8 19C22.7303 17.485 23.2966 15.7749 23.4545 14.0041C23.6124 12.2333 23.3577 10.45 22.7102 8.79422C22.0627 7.13848 21.0401 5.65541 19.7228 4.4615C18.4055 3.2676 16.8293 2.39537 15.1181 1.91333C13.4068 1.43129 11.6071 1.35257 9.86034 1.68335C8.11354 2.01412 6.46722 2.74539 5.0507 3.81972C3.63417 4.89404 2.48602 6.28216 1.69643 7.87503C0.906832 9.46791 0.4973 11.2222 0.499998 13C0.499513 15.1189 1.08809 17.1963 2.2 19"></path><path stroke="#191919" stroke-linecap="round" stroke-linejoin="round" d="M18.8 11.108C18.5879 10.7689 18.2931 10.4893 17.9432 10.2955C17.5934 10.1016 17.2 9.99994 16.8 9.99994C16.4 9.99994 16.0066 10.1016 15.6568 10.2955C15.3069 10.4893 15.0121 10.7689 14.8 11.108"></path><path stroke="#191919" stroke-linecap="round" stroke-linejoin="round" d="M9.5 11.108C9.2879 10.7689 8.99307 10.4893 8.64322 10.2955C8.29336 10.1016 7.89996 9.99994 7.5 9.99994C7.10004 9.99994 6.70664 10.1016 6.35678 10.2955C6.00693 10.4893 5.7121 10.7689 5.5 11.108"></path><path fill="#ff808c" stroke="#191919" stroke-linecap="round" stroke-linejoin="round" d="M12 15.5C11.6022 15.5 11.2206 15.658 10.9393 15.9393C10.658 16.2206 10.5 16.6022 10.5 17V19C10.5 19.3978 10.658 19.7794 10.9393 20.0607C11.2206 20.342 11.6022 20.5 12 20.5C12.3978 20.5 12.7794 20.342 13.0607 20.0607C13.342 19.7794 13.5 19.3978 13.5 19V17C13.5 16.6022 13.342 16.2206 13.0607 15.9393C12.7794 15.658 12.3978 15.5 12 15.5Z"></path><path stroke="#191919" stroke-linecap="round" stroke-linejoin="round" d="M4.5 13.5V20.506"></path><path stroke="#191919" stroke-linecap="round" stroke-linejoin="round" d="M7.5 13.5V20.506"></path><path fill="#c2f3ff" stroke="#191919" stroke-linecap="round" stroke-linejoin="round" d="M9.00001 24.5C9.22666 24.5018 9.45077 24.4522 9.65551 24.355C9.86026 24.2577 10.0403 24.1154 10.1821 23.9386C10.3239 23.7617 10.4238 23.5551 10.4743 23.3341C10.5248 23.1132 10.5246 22.8836 10.4736 22.6628C10.4226 22.4419 10.3223 22.2355 10.1801 22.059C10.0379 21.8825 9.85754 21.7405 9.65259 21.6437C9.44764 21.5469 9.22342 21.4978 8.99677 21.5001C8.77013 21.5024 8.54695 21.556 8.34401 21.657C8.17271 21.1722 7.85531 20.7524 7.43551 20.4555C7.01572 20.1586 6.51419 19.9991 6.00001 19.9991C5.48582 19.9991 4.98429 20.1586 4.5645 20.4555C4.1447 20.7524 3.8273 21.1722 3.65601 21.657C3.45306 21.556 3.22988 21.5024 3.00324 21.5001C2.77659 21.4978 2.55237 21.5469 2.34742 21.6437C2.14247 21.7405 1.96212 21.8825 1.81992 22.059C1.67772 22.2355 1.57737 22.4419 1.52641 22.6628C1.47545 22.8836 1.4752 23.1132 1.52569 23.3341C1.57617 23.5551 1.67608 23.7617 1.81789 23.9386C1.95971 24.1154 2.13976 24.2577 2.3445 24.355C2.54924 24.4522 2.77335 24.5018 3.00001 24.5H9.00001Z"></path><path stroke="#191919" stroke-linecap="round" stroke-linejoin="round" d="M19.5 13.5V20.506"></path><path stroke="#191919" stroke-linecap="round" stroke-linejoin="round" d="M16.5 13.5V20.506"></path><path fill="#c2f3ff" stroke="#191919" stroke-linecap="round" stroke-linejoin="round" d="M15 24.5C14.7734 24.5018 14.5492 24.4522 14.3445 24.355C14.1398 24.2577 13.9597 24.1154 13.8179 23.9386C13.6761 23.7617 13.5762 23.5551 13.5257 23.3341C13.4752 23.1132 13.4755 22.8836 13.5264 22.6628C13.5774 22.4419 13.6777 22.2355 13.8199 22.059C13.9621 21.8825 14.1425 21.7405 14.3474 21.6437C14.5524 21.5469 14.7766 21.4978 15.0032 21.5001C15.2299 21.5024 15.4531 21.556 15.656 21.657C15.8273 21.1722 16.1447 20.7524 16.5645 20.4555C16.9843 20.1586 17.4858 19.9991 18 19.9991C18.5142 19.9991 19.0157 20.1586 19.4355 20.4555C19.8553 20.7524 20.1727 21.1722 20.344 21.657C20.5469 21.556 20.7701 21.5024 20.9968 21.5001C21.2234 21.4978 21.4476 21.5469 21.6526 21.6437C21.8575 21.7405 22.0379 21.8825 22.1801 22.059C22.3223 22.2355 22.4226 22.4419 22.4736 22.6628C22.5246 22.8836 22.5248 23.1132 22.4743 23.3341C22.4238 23.5551 22.3239 23.7617 22.1821 23.9386C22.0403 24.1154 21.8603 24.2577 21.6555 24.355C21.4508 24.4522 21.2267 24.5018 21 24.5H15Z"></path></svg>