<svg xmlns="http://www.w3.org/2000/svg" fill="none" viewBox="0 0 24 24"><path fill="#ffef5e" d="M12 23.5C18.3513 23.5 23.5 18.3513 23.5 12C23.5 5.64873 18.3513 0.5 12 0.5C5.64873 0.5 0.5 5.64873 0.5 12C0.5 18.3513 5.64873 23.5 12 23.5Z"></path><path fill="#fff9bf" d="M12 4.5C14.4844 4.50019 16.9109 5.25054 18.9618 6.65282C21.0127 8.05509 22.5923 10.0439 23.494 12.359C23.494 12.239 23.5 12.12 23.5 12C23.5 8.95001 22.2884 6.02494 20.1317 3.86827C17.9751 1.7116 15.05 0.5 12 0.5C8.95001 0.5 6.02494 1.7116 3.86827 3.86827C1.7116 6.02494 0.5 8.95001 0.5 12C0.5 12.12 0.5 12.239 0.506 12.359C1.40766 10.0439 2.98733 8.05509 5.0382 6.65282C7.08906 5.25054 9.51556 4.50019 12 4.5V4.5Z"></path><path stroke="#191919" stroke-linecap="round" stroke-linejoin="round" d="M6 15.5C6.49356 16.6845 7.32671 17.6965 8.39445 18.4083C9.46219 19.1202 10.7167 19.5 12 19.5C13.2833 19.5 14.5378 19.1202 15.6056 18.4083C16.6733 17.6965 17.5064 16.6845 18 15.5"></path><path stroke="#191919" stroke-linecap="round" stroke-linejoin="round" d="M12 23.5C18.3513 23.5 23.5 18.3513 23.5 12C23.5 5.64873 18.3513 0.5 12 0.5C5.64873 0.5 0.5 5.64873 0.5 12C0.5 18.3513 5.64873 23.5 12 23.5Z"></path><path fill="#ff808c" stroke="#191919" stroke-linecap="round" stroke-linejoin="round" d="M7.143 11.5L4.464 8.70599C4.22831 8.47101 4.07251 8.16784 4.01867 7.83941C3.96483 7.51097 4.01567 7.17393 4.164 6.87599V6.87599C4.27655 6.65149 4.44079 6.45693 4.64322 6.30831C4.84565 6.15969 5.08048 6.06126 5.32839 6.02113C5.57629 5.981 5.83018 6.00032 6.06916 6.07748C6.30814 6.15465 6.52538 6.28746 6.703 6.46499L7.14 6.90199L7.578 6.46499C7.75553 6.28746 7.97269 6.15464 8.21159 6.07747C8.4505 6.0003 8.70433 5.98098 8.95216 6.02112C9.2 6.06125 9.43475 6.15968 9.63709 6.30831C9.83944 6.45694 10.0036 6.65151 10.116 6.87599C10.2645 7.17389 10.3154 7.51098 10.2616 7.83944C10.2077 8.16791 10.0518 8.47109 9.816 8.70599L7.143 11.5Z"></path><path fill="#ff808c" stroke="#191919" stroke-linecap="round" stroke-linejoin="round" d="M16.857 11.5L19.536 8.70501C19.7717 8.47003 19.9275 8.16686 19.9813 7.83843C20.0352 7.51 19.9843 7.17295 19.836 6.87501V6.87501C19.7235 6.65051 19.5592 6.45595 19.3568 6.30733C19.1543 6.15871 18.9195 6.06029 18.6716 6.02016C18.4237 5.98003 18.1698 5.99934 17.9308 6.07651C17.6919 6.15367 17.4746 6.28649 17.297 6.46401L16.86 6.90101L16.422 6.46401C16.2445 6.28648 16.0273 6.15366 15.7884 6.07649C15.5495 5.99932 15.2957 5.98 15.0478 6.02014C14.8 6.06027 14.5652 6.15871 14.3629 6.30733C14.1606 6.45596 13.9964 6.65053 13.884 6.87501V6.87501C13.7357 7.17295 13.6848 7.51 13.7387 7.83843C13.7925 8.16686 13.9483 8.47003 14.184 8.70501L16.857 11.5Z"></path></svg>