<svg xmlns="http://www.w3.org/2000/svg" fill="none" viewBox="0 0 24 24"><path fill="#ff808c" d="M12 23.5C18.3513 23.5 23.5 18.3513 23.5 12C23.5 5.64873 18.3513 0.5 12 0.5C5.64873 0.5 0.5 5.64873 0.5 12C0.5 18.3513 5.64873 23.5 12 23.5Z"></path><path fill="#ffccd1" d="M12 4.5C14.4844 4.50019 16.9109 5.25054 18.9618 6.65282C21.0127 8.05509 22.5923 10.0439 23.494 12.359C23.494 12.239 23.5 12.12 23.5 12C23.5 8.95001 22.2884 6.02494 20.1317 3.86827C17.9751 1.7116 15.05 0.5 12 0.5C8.95001 0.5 6.02494 1.7116 3.86827 3.86827C1.7116 6.02494 0.5 8.95001 0.5 12C0.5 12.12 0.5 12.239 0.506 12.359C1.40766 10.0439 2.98733 8.05509 5.0382 6.65282C7.08906 5.25054 9.51556 4.50019 12 4.5V4.5Z"></path><path stroke="#191919" stroke-linecap="round" stroke-linejoin="round" d="M6.5 9.5H9.5L7 7"></path><path stroke="#191919" stroke-linecap="round" stroke-linejoin="round" d="M17.5 9.5H14.5L17 7"></path><path stroke="#191919" stroke-linecap="round" stroke-linejoin="round" d="M12 23.5C18.3513 23.5 23.5 18.3513 23.5 12C23.5 5.64873 18.3513 0.5 12 0.5C5.64873 0.5 0.5 5.64873 0.5 12C0.5 18.3513 5.64873 23.5 12 23.5Z"></path><path fill="#808080" stroke="#191919" stroke-linecap="round" stroke-linejoin="round" d="M15.873 18.5C16.0257 18.5002 16.1763 18.4655 16.3135 18.3985C16.4507 18.3315 16.5707 18.234 16.6643 18.1134C16.7579 17.9928 16.8227 17.8524 16.8537 17.7029C16.8847 17.5535 16.881 17.3989 16.843 17.251C16.5671 16.1762 15.9415 15.2236 15.0647 14.5435C14.1879 13.8633 13.1097 13.4941 12 13.4941C10.8903 13.4941 9.81214 13.8633 8.93533 14.5435C8.05852 15.2236 7.4329 16.1762 7.157 17.251C7.11899 17.3989 7.11533 17.5535 7.14631 17.7029C7.17728 17.8524 7.24207 17.9928 7.33571 18.1134C7.42934 18.234 7.54934 18.3315 7.6865 18.3985C7.82366 18.4655 7.97434 18.5002 8.127 18.5H15.873Z"></path></svg>